%TF.GenerationSoftware,KiCad,Pcbnew,5.1.6*%
%TF.CreationDate,2020-06-15T17:45:53+02:00*%
%TF.ProjectId,exposure_test,6578706f-7375-4726-955f-746573742e6b,rev?*%
%TF.SameCoordinates,Original*%
%TF.FileFunction,Copper,L2,Bot*%
%TF.FilePolarity,Positive*%
%FSLAX46Y46*%
G04 Gerber Fmt 4.6, Leading zero omitted, Abs format (unit mm)*
G04 Created by KiCad (PCBNEW 5.1.6) date 2020-06-15 17:45:53*
%MOMM*%
%LPD*%
G01*
G04 APERTURE LIST*
%TA.AperFunction,ComponentPad*%
%ADD10C,2.000000*%
%TD*%
%TA.AperFunction,ComponentPad*%
%ADD11C,1.600000*%
%TD*%
%TA.AperFunction,Conductor*%
%ADD12C,0.500000*%
%TD*%
%TA.AperFunction,Conductor*%
%ADD13C,0.250000*%
%TD*%
%TA.AperFunction,Conductor*%
%ADD14C,1.000000*%
%TD*%
%TA.AperFunction,Conductor*%
%ADD15C,2.000000*%
%TD*%
%TA.AperFunction,Conductor*%
%ADD16C,1.500000*%
%TD*%
%TA.AperFunction,NonConductor*%
%ADD17C,0.254000*%
%TD*%
G04 APERTURE END LIST*
D10*
%TO.P,C1,1*%
%TO.N,N/C*%
X68620000Y-90424000D03*
%TO.P,C1,2*%
X71120000Y-90424000D03*
%TD*%
D11*
%TO.P,C1,1*%
%TO.N,N/C*%
X63246000Y-90424000D03*
%TO.P,C1,2*%
X65746000Y-90424000D03*
%TD*%
%TO.P,C1,1*%
%TO.N,N/C*%
X60198000Y-89916000D03*
%TO.P,C1,2*%
X60198000Y-87416000D03*
%TD*%
D12*
%TO.N,*%
X59182000Y-81915000D02*
X62865000Y-81915000D01*
X62865000Y-81915000D02*
X65024000Y-84074000D01*
X65024000Y-84074000D02*
X65024000Y-87630000D01*
X64262000Y-84328000D02*
X64262000Y-87630000D01*
X59182000Y-82677000D02*
X62611000Y-82677000D01*
X62611000Y-82677000D02*
X64262000Y-84328000D01*
X59182000Y-81280000D02*
X63119000Y-81280000D01*
X65659000Y-83820000D02*
X65659000Y-87630000D01*
X63119000Y-81280000D02*
X65659000Y-83820000D01*
X59182000Y-83820000D02*
X61976000Y-83820000D01*
X63119000Y-84963000D02*
X63119000Y-87630000D01*
X61976000Y-83820000D02*
X63119000Y-84963000D01*
D13*
X59182000Y-79756000D02*
X64008000Y-79756000D01*
X64008000Y-79756000D02*
X66802000Y-82550000D01*
X66802000Y-82550000D02*
X66802000Y-87630000D01*
D14*
X59182000Y-78486000D02*
X65024000Y-78486000D01*
X65024000Y-78486000D02*
X68326000Y-81788000D01*
X68326000Y-81788000D02*
X68326000Y-87630000D01*
D15*
X58928000Y-73152000D02*
X66802000Y-73152000D01*
X66802000Y-73152000D02*
X73152000Y-79502000D01*
X73152000Y-79502000D02*
X73152000Y-87630000D01*
D16*
X70358000Y-81026000D02*
X70358000Y-87630000D01*
X58928000Y-76454000D02*
X65786000Y-76454000D01*
X65786000Y-76454000D02*
X70358000Y-81026000D01*
%TD*%
D17*
G36*
X75311000Y-92329000D02*
G01*
X56769000Y-92329000D01*
X56769000Y-73152000D01*
X57092160Y-73152000D01*
X57127435Y-73510155D01*
X57231905Y-73854546D01*
X57401555Y-74171938D01*
X57629865Y-74450135D01*
X57908062Y-74678445D01*
X58225454Y-74848095D01*
X58507408Y-74933625D01*
X58321588Y-74989993D01*
X58047627Y-75136428D01*
X57807497Y-75333497D01*
X57610428Y-75573627D01*
X57463993Y-75847588D01*
X57373818Y-76144854D01*
X57343370Y-76454000D01*
X57373818Y-76763146D01*
X57463993Y-77060412D01*
X57610428Y-77334373D01*
X57807497Y-77574503D01*
X58047627Y-77771572D01*
X58056630Y-77776384D01*
X57950081Y-77975722D01*
X57874201Y-78225863D01*
X57848580Y-78486000D01*
X57874201Y-78746137D01*
X57950081Y-78996278D01*
X58073302Y-79226808D01*
X58239130Y-79428870D01*
X58276975Y-79459929D01*
X58243775Y-79569375D01*
X58225394Y-79756000D01*
X58243775Y-79942625D01*
X58298211Y-80122077D01*
X58386611Y-80287462D01*
X58505577Y-80432423D01*
X58511334Y-80437147D01*
X58416761Y-80514761D01*
X58282174Y-80678756D01*
X58182167Y-80865856D01*
X58120583Y-81068871D01*
X58099789Y-81280000D01*
X58120583Y-81491129D01*
X58152850Y-81597500D01*
X58120583Y-81703871D01*
X58099789Y-81915000D01*
X58120583Y-82126129D01*
X58172113Y-82296000D01*
X58120583Y-82465871D01*
X58099789Y-82677000D01*
X58120583Y-82888129D01*
X58182167Y-83091144D01*
X58266276Y-83248500D01*
X58182167Y-83405856D01*
X58120583Y-83608871D01*
X58099789Y-83820000D01*
X58120583Y-84031129D01*
X58182167Y-84234144D01*
X58282174Y-84421244D01*
X58416761Y-84585239D01*
X58580756Y-84719826D01*
X58767856Y-84819833D01*
X58970871Y-84881417D01*
X59129091Y-84897000D01*
X61529893Y-84897000D01*
X62042000Y-85409108D01*
X62042001Y-87682909D01*
X62057584Y-87841129D01*
X62119168Y-88044144D01*
X62219175Y-88231244D01*
X62353762Y-88395239D01*
X62517757Y-88529826D01*
X62704857Y-88629833D01*
X62907872Y-88691417D01*
X63119000Y-88712211D01*
X63330129Y-88691417D01*
X63533144Y-88629833D01*
X63690501Y-88545724D01*
X63847857Y-88629833D01*
X64050872Y-88691417D01*
X64262000Y-88712211D01*
X64473129Y-88691417D01*
X64643001Y-88639887D01*
X64812872Y-88691417D01*
X65024000Y-88712211D01*
X65235129Y-88691417D01*
X65341501Y-88659150D01*
X65447872Y-88691417D01*
X65659000Y-88712211D01*
X65870129Y-88691417D01*
X66073144Y-88629833D01*
X66260244Y-88529826D01*
X66341369Y-88463248D01*
X66435924Y-88513789D01*
X66615376Y-88568225D01*
X66802000Y-88586606D01*
X66988625Y-88568225D01*
X67168077Y-88513789D01*
X67283856Y-88451904D01*
X67383131Y-88572870D01*
X67585193Y-88738698D01*
X67734379Y-88818439D01*
X67455355Y-89004876D01*
X67200876Y-89259355D01*
X67062731Y-89466105D01*
X67009773Y-89386848D01*
X66783152Y-89160227D01*
X66516673Y-88982172D01*
X66220578Y-88859525D01*
X65906245Y-88797000D01*
X65585755Y-88797000D01*
X65271422Y-88859525D01*
X64975327Y-88982172D01*
X64708848Y-89160227D01*
X64496000Y-89373075D01*
X64283152Y-89160227D01*
X64016673Y-88982172D01*
X63720578Y-88859525D01*
X63406245Y-88797000D01*
X63085755Y-88797000D01*
X62771422Y-88859525D01*
X62475327Y-88982172D01*
X62208848Y-89160227D01*
X61982227Y-89386848D01*
X61804522Y-89652804D01*
X61762475Y-89441422D01*
X61639828Y-89145327D01*
X61461773Y-88878848D01*
X61248925Y-88666000D01*
X61461773Y-88453152D01*
X61639828Y-88186673D01*
X61762475Y-87890578D01*
X61825000Y-87576245D01*
X61825000Y-87255755D01*
X61762475Y-86941422D01*
X61639828Y-86645327D01*
X61461773Y-86378848D01*
X61235152Y-86152227D01*
X60968673Y-85974172D01*
X60672578Y-85851525D01*
X60358245Y-85789000D01*
X60037755Y-85789000D01*
X59723422Y-85851525D01*
X59427327Y-85974172D01*
X59160848Y-86152227D01*
X58934227Y-86378848D01*
X58756172Y-86645327D01*
X58633525Y-86941422D01*
X58571000Y-87255755D01*
X58571000Y-87576245D01*
X58633525Y-87890578D01*
X58756172Y-88186673D01*
X58934227Y-88453152D01*
X59147075Y-88666000D01*
X58934227Y-88878848D01*
X58756172Y-89145327D01*
X58633525Y-89441422D01*
X58571000Y-89755755D01*
X58571000Y-90076245D01*
X58633525Y-90390578D01*
X58756172Y-90686673D01*
X58934227Y-90953152D01*
X59160848Y-91179773D01*
X59427327Y-91357828D01*
X59723422Y-91480475D01*
X60037755Y-91543000D01*
X60358245Y-91543000D01*
X60672578Y-91480475D01*
X60968673Y-91357828D01*
X61235152Y-91179773D01*
X61461773Y-90953152D01*
X61639478Y-90687196D01*
X61681525Y-90898578D01*
X61804172Y-91194673D01*
X61982227Y-91461152D01*
X62208848Y-91687773D01*
X62475327Y-91865828D01*
X62771422Y-91988475D01*
X63085755Y-92051000D01*
X63406245Y-92051000D01*
X63720578Y-91988475D01*
X64016673Y-91865828D01*
X64283152Y-91687773D01*
X64496000Y-91474925D01*
X64708848Y-91687773D01*
X64975327Y-91865828D01*
X65271422Y-91988475D01*
X65585755Y-92051000D01*
X65906245Y-92051000D01*
X66220578Y-91988475D01*
X66516673Y-91865828D01*
X66783152Y-91687773D01*
X67009773Y-91461152D01*
X67062731Y-91381895D01*
X67200876Y-91588645D01*
X67455355Y-91843124D01*
X67754591Y-92043066D01*
X68087084Y-92180789D01*
X68440056Y-92251000D01*
X68799944Y-92251000D01*
X69152916Y-92180789D01*
X69485409Y-92043066D01*
X69784645Y-91843124D01*
X69870000Y-91757769D01*
X69955355Y-91843124D01*
X70254591Y-92043066D01*
X70587084Y-92180789D01*
X70940056Y-92251000D01*
X71299944Y-92251000D01*
X71652916Y-92180789D01*
X71985409Y-92043066D01*
X72284645Y-91843124D01*
X72539124Y-91588645D01*
X72739066Y-91289409D01*
X72876789Y-90956916D01*
X72947000Y-90603944D01*
X72947000Y-90244056D01*
X72876789Y-89891084D01*
X72739066Y-89558591D01*
X72617850Y-89377177D01*
X72793846Y-89430565D01*
X73152000Y-89465840D01*
X73510155Y-89430565D01*
X73854546Y-89326095D01*
X74171938Y-89156445D01*
X74450135Y-88928135D01*
X74678445Y-88649938D01*
X74848095Y-88332546D01*
X74952565Y-87988155D01*
X74979000Y-87719755D01*
X74979000Y-79591751D01*
X74987840Y-79501999D01*
X74976801Y-79389923D01*
X74952565Y-79143845D01*
X74848095Y-78799454D01*
X74678445Y-78482062D01*
X74450135Y-78203865D01*
X74380418Y-78146650D01*
X68157355Y-71923588D01*
X68100135Y-71853865D01*
X67821938Y-71625555D01*
X67504546Y-71455905D01*
X67160155Y-71351435D01*
X66891755Y-71325000D01*
X66891752Y-71325000D01*
X66802000Y-71316160D01*
X66712248Y-71325000D01*
X58838245Y-71325000D01*
X58569845Y-71351435D01*
X58225454Y-71455905D01*
X57908062Y-71625555D01*
X57629865Y-71853865D01*
X57401555Y-72132062D01*
X57231905Y-72449454D01*
X57127435Y-72793845D01*
X57092160Y-73152000D01*
X56769000Y-73152000D01*
X56769000Y-71247000D01*
X75311000Y-71247000D01*
X75311000Y-92329000D01*
G37*
X75311000Y-92329000D02*
X56769000Y-92329000D01*
X56769000Y-73152000D01*
X57092160Y-73152000D01*
X57127435Y-73510155D01*
X57231905Y-73854546D01*
X57401555Y-74171938D01*
X57629865Y-74450135D01*
X57908062Y-74678445D01*
X58225454Y-74848095D01*
X58507408Y-74933625D01*
X58321588Y-74989993D01*
X58047627Y-75136428D01*
X57807497Y-75333497D01*
X57610428Y-75573627D01*
X57463993Y-75847588D01*
X57373818Y-76144854D01*
X57343370Y-76454000D01*
X57373818Y-76763146D01*
X57463993Y-77060412D01*
X57610428Y-77334373D01*
X57807497Y-77574503D01*
X58047627Y-77771572D01*
X58056630Y-77776384D01*
X57950081Y-77975722D01*
X57874201Y-78225863D01*
X57848580Y-78486000D01*
X57874201Y-78746137D01*
X57950081Y-78996278D01*
X58073302Y-79226808D01*
X58239130Y-79428870D01*
X58276975Y-79459929D01*
X58243775Y-79569375D01*
X58225394Y-79756000D01*
X58243775Y-79942625D01*
X58298211Y-80122077D01*
X58386611Y-80287462D01*
X58505577Y-80432423D01*
X58511334Y-80437147D01*
X58416761Y-80514761D01*
X58282174Y-80678756D01*
X58182167Y-80865856D01*
X58120583Y-81068871D01*
X58099789Y-81280000D01*
X58120583Y-81491129D01*
X58152850Y-81597500D01*
X58120583Y-81703871D01*
X58099789Y-81915000D01*
X58120583Y-82126129D01*
X58172113Y-82296000D01*
X58120583Y-82465871D01*
X58099789Y-82677000D01*
X58120583Y-82888129D01*
X58182167Y-83091144D01*
X58266276Y-83248500D01*
X58182167Y-83405856D01*
X58120583Y-83608871D01*
X58099789Y-83820000D01*
X58120583Y-84031129D01*
X58182167Y-84234144D01*
X58282174Y-84421244D01*
X58416761Y-84585239D01*
X58580756Y-84719826D01*
X58767856Y-84819833D01*
X58970871Y-84881417D01*
X59129091Y-84897000D01*
X61529893Y-84897000D01*
X62042000Y-85409108D01*
X62042001Y-87682909D01*
X62057584Y-87841129D01*
X62119168Y-88044144D01*
X62219175Y-88231244D01*
X62353762Y-88395239D01*
X62517757Y-88529826D01*
X62704857Y-88629833D01*
X62907872Y-88691417D01*
X63119000Y-88712211D01*
X63330129Y-88691417D01*
X63533144Y-88629833D01*
X63690501Y-88545724D01*
X63847857Y-88629833D01*
X64050872Y-88691417D01*
X64262000Y-88712211D01*
X64473129Y-88691417D01*
X64643001Y-88639887D01*
X64812872Y-88691417D01*
X65024000Y-88712211D01*
X65235129Y-88691417D01*
X65341501Y-88659150D01*
X65447872Y-88691417D01*
X65659000Y-88712211D01*
X65870129Y-88691417D01*
X66073144Y-88629833D01*
X66260244Y-88529826D01*
X66341369Y-88463248D01*
X66435924Y-88513789D01*
X66615376Y-88568225D01*
X66802000Y-88586606D01*
X66988625Y-88568225D01*
X67168077Y-88513789D01*
X67283856Y-88451904D01*
X67383131Y-88572870D01*
X67585193Y-88738698D01*
X67734379Y-88818439D01*
X67455355Y-89004876D01*
X67200876Y-89259355D01*
X67062731Y-89466105D01*
X67009773Y-89386848D01*
X66783152Y-89160227D01*
X66516673Y-88982172D01*
X66220578Y-88859525D01*
X65906245Y-88797000D01*
X65585755Y-88797000D01*
X65271422Y-88859525D01*
X64975327Y-88982172D01*
X64708848Y-89160227D01*
X64496000Y-89373075D01*
X64283152Y-89160227D01*
X64016673Y-88982172D01*
X63720578Y-88859525D01*
X63406245Y-88797000D01*
X63085755Y-88797000D01*
X62771422Y-88859525D01*
X62475327Y-88982172D01*
X62208848Y-89160227D01*
X61982227Y-89386848D01*
X61804522Y-89652804D01*
X61762475Y-89441422D01*
X61639828Y-89145327D01*
X61461773Y-88878848D01*
X61248925Y-88666000D01*
X61461773Y-88453152D01*
X61639828Y-88186673D01*
X61762475Y-87890578D01*
X61825000Y-87576245D01*
X61825000Y-87255755D01*
X61762475Y-86941422D01*
X61639828Y-86645327D01*
X61461773Y-86378848D01*
X61235152Y-86152227D01*
X60968673Y-85974172D01*
X60672578Y-85851525D01*
X60358245Y-85789000D01*
X60037755Y-85789000D01*
X59723422Y-85851525D01*
X59427327Y-85974172D01*
X59160848Y-86152227D01*
X58934227Y-86378848D01*
X58756172Y-86645327D01*
X58633525Y-86941422D01*
X58571000Y-87255755D01*
X58571000Y-87576245D01*
X58633525Y-87890578D01*
X58756172Y-88186673D01*
X58934227Y-88453152D01*
X59147075Y-88666000D01*
X58934227Y-88878848D01*
X58756172Y-89145327D01*
X58633525Y-89441422D01*
X58571000Y-89755755D01*
X58571000Y-90076245D01*
X58633525Y-90390578D01*
X58756172Y-90686673D01*
X58934227Y-90953152D01*
X59160848Y-91179773D01*
X59427327Y-91357828D01*
X59723422Y-91480475D01*
X60037755Y-91543000D01*
X60358245Y-91543000D01*
X60672578Y-91480475D01*
X60968673Y-91357828D01*
X61235152Y-91179773D01*
X61461773Y-90953152D01*
X61639478Y-90687196D01*
X61681525Y-90898578D01*
X61804172Y-91194673D01*
X61982227Y-91461152D01*
X62208848Y-91687773D01*
X62475327Y-91865828D01*
X62771422Y-91988475D01*
X63085755Y-92051000D01*
X63406245Y-92051000D01*
X63720578Y-91988475D01*
X64016673Y-91865828D01*
X64283152Y-91687773D01*
X64496000Y-91474925D01*
X64708848Y-91687773D01*
X64975327Y-91865828D01*
X65271422Y-91988475D01*
X65585755Y-92051000D01*
X65906245Y-92051000D01*
X66220578Y-91988475D01*
X66516673Y-91865828D01*
X66783152Y-91687773D01*
X67009773Y-91461152D01*
X67062731Y-91381895D01*
X67200876Y-91588645D01*
X67455355Y-91843124D01*
X67754591Y-92043066D01*
X68087084Y-92180789D01*
X68440056Y-92251000D01*
X68799944Y-92251000D01*
X69152916Y-92180789D01*
X69485409Y-92043066D01*
X69784645Y-91843124D01*
X69870000Y-91757769D01*
X69955355Y-91843124D01*
X70254591Y-92043066D01*
X70587084Y-92180789D01*
X70940056Y-92251000D01*
X71299944Y-92251000D01*
X71652916Y-92180789D01*
X71985409Y-92043066D01*
X72284645Y-91843124D01*
X72539124Y-91588645D01*
X72739066Y-91289409D01*
X72876789Y-90956916D01*
X72947000Y-90603944D01*
X72947000Y-90244056D01*
X72876789Y-89891084D01*
X72739066Y-89558591D01*
X72617850Y-89377177D01*
X72793846Y-89430565D01*
X73152000Y-89465840D01*
X73510155Y-89430565D01*
X73854546Y-89326095D01*
X74171938Y-89156445D01*
X74450135Y-88928135D01*
X74678445Y-88649938D01*
X74848095Y-88332546D01*
X74952565Y-87988155D01*
X74979000Y-87719755D01*
X74979000Y-79591751D01*
X74987840Y-79501999D01*
X74976801Y-79389923D01*
X74952565Y-79143845D01*
X74848095Y-78799454D01*
X74678445Y-78482062D01*
X74450135Y-78203865D01*
X74380418Y-78146650D01*
X68157355Y-71923588D01*
X68100135Y-71853865D01*
X67821938Y-71625555D01*
X67504546Y-71455905D01*
X67160155Y-71351435D01*
X66891755Y-71325000D01*
X66891752Y-71325000D01*
X66802000Y-71316160D01*
X66712248Y-71325000D01*
X58838245Y-71325000D01*
X58569845Y-71351435D01*
X58225454Y-71455905D01*
X57908062Y-71625555D01*
X57629865Y-71853865D01*
X57401555Y-72132062D01*
X57231905Y-72449454D01*
X57127435Y-72793845D01*
X57092160Y-73152000D01*
X56769000Y-73152000D01*
X56769000Y-71247000D01*
X75311000Y-71247000D01*
X75311000Y-92329000D01*
G36*
X69177499Y-88677394D02*
G01*
X69153580Y-88667486D01*
X69163014Y-88659744D01*
X69177499Y-88677394D01*
G37*
X69177499Y-88677394D02*
X69153580Y-88667486D01*
X69163014Y-88659744D01*
X69177499Y-88677394D01*
G36*
X71625556Y-88649938D02*
G01*
X71637159Y-88664077D01*
X71561742Y-88649075D01*
X71600107Y-88602327D01*
X71625556Y-88649938D01*
G37*
X71625556Y-88649938D02*
X71637159Y-88664077D01*
X71561742Y-88649075D01*
X71600107Y-88602327D01*
X71625556Y-88649938D01*
M02*
